
<svg width="24" height="24" viewBox="0 0 24 24" fill="none" xmlns="http://www.w3.org/2000/svg">
<g id="Frame">
<g id="Group">
<path id="Vector" fill-rule="evenodd" clip-rule="evenodd" d="M13.3952 1.32399C12.9612 1.1106 12.4839 0.999634 12.0002 0.999634C11.5166 0.999634 11.0393 1.1106 10.6052 1.32399L1.85324 5.63399C0.716238 6.19399 0.716238 7.80699 1.85324 8.36699L10.6052 12.676C11.0393 12.8895 11.5165 13.0005 12.0002 13.0005C12.4839 13.0005 12.9612 12.8895 13.3952 12.676L22.1472 8.36599C23.2842 7.80599 23.2842 6.19299 22.1472 5.63299L13.3952 1.32399ZM1.90324 10.61C1.97198 10.5761 2.0476 10.5585 2.12424 10.5585C2.20088 10.5585 2.27649 10.5761 2.34524 10.61L10.6052 14.677C11.0393 14.8904 11.5166 15.0013 12.0002 15.0013C12.4839 15.0013 12.9612 14.8904 13.3952 14.677L21.6552 10.61C21.724 10.5761 21.7996 10.5585 21.8762 10.5585C21.9529 10.5585 22.0285 10.5761 22.0972 10.61L22.1472 10.634C23.2842 11.194 23.2842 12.808 22.1472 13.367L13.3952 17.677C12.9612 17.8904 12.4839 18.0013 12.0002 18.0013C11.5166 18.0013 11.0393 17.8904 10.6052 17.677L1.85324 13.367C0.716238 12.807 0.716238 11.194 1.85324 10.634L1.90324 10.61ZM2.34524 15.61C2.27649 15.5761 2.20088 15.5585 2.12424 15.5585C2.0476 15.5585 1.97198 15.5761 1.90324 15.61L1.85324 15.635C0.716238 16.195 0.716238 17.808 1.85324 18.368L10.6052 22.677C11.0393 22.8904 11.5166 23.0013 12.0002 23.0013C12.4839 23.0013 12.9612 22.8904 13.3952 22.677L22.1472 18.367C23.2842 17.807 23.2842 16.194 22.1472 15.634L22.0972 15.61C22.0285 15.5761 21.9529 15.5585 21.8762 15.5585C21.7996 15.5585 21.724 15.5761 21.6552 15.61L13.3952 19.677C12.9612 19.8904 12.4839 20.0013 12.0002 20.0013C11.5166 20.0013 11.0393 19.8904 10.6052 19.677L2.34524 15.61Z" fill="#2E2C2A"/>
</g>
</g>
</svg>
