
<svg width="100" height="100" viewBox="0 0 100 100" fill="none" xmlns="http://www.w3.org/2000/svg">
<g id="Frame" clip-path="url(#clip0_33_617)">
<g id="Group">
<path id="Vector" d="M50 0C22.4283 0 0 22.4305 0 50C0 77.5695 22.4283 100 50 100C77.5717 100 100 77.5695 100 50C100 22.4305 77.5717 0 50 0ZM69.8772 51.7518L40.7105 70.5018C40.3746 70.7186 39.9832 70.8338 39.5834 70.8334C39.2416 70.8334 38.8957 70.7478 38.5865 70.5791C38.2576 70.4002 37.983 70.1358 37.7918 69.8139C37.6006 69.492 37.4998 69.1244 37.5 68.75V31.25C37.5 30.4871 37.915 29.7871 38.5865 29.4209C39.2457 29.0588 40.0717 29.0811 40.7105 29.4982L69.8772 48.2482C70.4713 48.6307 70.8334 49.292 70.8334 50C70.8334 50.708 70.4713 51.3691 69.8772 51.7518Z" fill="#F5F3EA"/>
</g>
</g>
<defs>
<clipPath id="clip0_33_617">
<rect width="100" height="100" fill="white"/>
</clipPath>
</defs>
</svg>
