<svg width="24" height="24" viewBox="0 0 24 24" fill="none" xmlns="http://www.w3.org/2000/svg">
<g id="Frame" clip-path="url(#clip0_21_118)">
<g id="Group">
<g id="Layer 2">
<path id="Vector" d="M12 12.75C11.11 12.75 10.24 12.4861 9.49994 11.9916C8.75991 11.4971 8.18314 10.7943 7.84254 9.97208C7.50195 9.14981 7.41283 8.24501 7.58647 7.3721C7.7601 6.49918 8.18869 5.69736 8.81802 5.06802C9.44736 4.43869 10.2492 4.0101 11.1221 3.83647C11.995 3.66283 12.8998 3.75195 13.7221 4.09254C14.5443 4.43314 15.2471 5.00991 15.7416 5.74994C16.2361 6.48996 16.5 7.35999 16.5 8.25C16.5 9.44348 16.0259 10.5881 15.182 11.432C14.3381 12.2759 13.1935 12.75 12 12.75ZM12 5.25C11.4067 5.25 10.8266 5.42595 10.3333 5.75559C9.83994 6.08524 9.45543 6.55377 9.22836 7.10195C9.0013 7.65013 8.94189 8.25333 9.05765 8.83527C9.1734 9.41722 9.45912 9.95177 9.87868 10.3713C10.2982 10.7909 10.8328 11.0766 11.4147 11.1924C11.9967 11.3081 12.5999 11.2487 13.1481 11.0216C13.6962 10.7946 14.1648 10.4101 14.4944 9.91671C14.8241 9.42337 15 8.84335 15 8.25C15 7.45435 14.6839 6.69129 14.1213 6.12868C13.5587 5.56607 12.7957 5.25 12 5.25Z" fill="#2E2C2A"/>
<path id="Vector_2" d="M12 23.25C10.3368 23.2489 8.69458 22.8791 7.19151 22.1671C5.68844 21.4551 4.36193 20.4187 3.30748 19.1325L2.91748 18.6525L3.30748 18.18C4.36282 16.8955 5.68972 15.8609 7.19274 15.1505C8.69576 14.4401 10.3375 14.0717 12 14.0717C13.6624 14.0717 15.3042 14.4401 16.8072 15.1505C18.3102 15.8609 19.6371 16.8955 20.6925 18.18L21.0825 18.6525L20.6925 19.1325C19.638 20.4187 18.3115 21.4551 16.8085 22.1671C15.3054 22.8791 13.6631 23.2489 12 23.25ZM4.88248 18.66C5.79466 19.6365 6.89783 20.4151 8.12351 20.9474C9.34918 21.4797 10.6712 21.7544 12.0075 21.7544C13.3438 21.7544 14.6658 21.4797 15.8915 20.9474C17.1171 20.4151 18.2203 19.6365 19.1325 18.66C18.2203 17.6835 17.1171 16.9049 15.8915 16.3726C14.6658 15.8403 13.3438 15.5656 12.0075 15.5656C10.6712 15.5656 9.34918 15.8403 8.12351 16.3726C6.89783 16.9049 5.79466 17.6835 4.88248 18.66Z" fill="#2E2C2A"/>
<path id="Vector_3" d="M12.0002 23.25C9.44474 23.2517 6.96486 22.3834 4.9687 20.7878C2.97254 19.1923 1.57905 16.9648 1.01759 14.4718C0.456123 11.9788 0.760141 9.36891 1.8796 7.07172C2.99907 4.77453 4.86727 2.92691 7.17672 1.83296C9.48617 0.739009 12.0992 0.463918 14.5859 1.05296C17.0725 1.642 19.2845 3.06008 20.8578 5.07379C22.4311 7.0875 23.2719 9.57685 23.2419 12.1321C23.2119 14.6874 22.3128 17.1563 20.6927 19.1325C19.6382 20.4187 18.3117 21.4551 16.8087 22.1671C15.3056 22.879 13.6634 23.2489 12.0002 23.25ZM12.0002 2.25001C10.0718 2.25001 8.18676 2.82184 6.58338 3.89318C4.98 4.96452 3.73032 6.48726 2.99236 8.26884C2.25441 10.0504 2.06132 12.0108 2.43753 13.9021C2.81374 15.7935 3.74233 17.5307 5.1059 18.8943C6.46946 20.2579 8.20674 21.1865 10.0981 21.5627C11.9894 21.9389 13.9498 21.7458 15.7313 21.0078C17.5129 20.2699 19.0357 19.0202 20.107 17.4168C21.1784 15.8134 21.7502 13.9284 21.7502 12C21.7502 9.41415 20.723 6.9342 18.8945 5.10572C17.066 3.27724 14.586 2.25001 12.0002 2.25001Z" fill="#2E2C2A"/>
<path id="Vector_4" d="M3.88525 18.66C3.88525 18.66 11.4378 27.0975 19.1253 19.5L20.1153 18.66C20.1153 18.66 13.6953 12 7.17775 15.9975L3.88525 18.66Z" fill="#2E2C2A"/>
<path id="Vector_5" d="M12 12C14.0711 12 15.75 10.3211 15.75 8.25C15.75 6.17893 14.0711 4.5 12 4.5C9.92893 4.5 8.25 6.17893 8.25 8.25C8.25 10.3211 9.92893 12 12 12Z" fill="#2E2C2A"/>
</g>
</g>
</g>
<defs>
<clipPath id="clip0_21_118">
<rect width="24" height="24" fill="white"/>
</clipPath>
</defs>
</svg>
