<svg width="24" height="24" viewBox="0 0 24 24" fill="none" xmlns="http://www.w3.org/2000/svg">
<g id="Frame">
<g id="Group">
<path id="Vector" d="M10.5938 22.5469C11.7587 22.5469 12.7031 21.6025 12.7031 20.4375C12.7031 19.2725 11.7587 18.3281 10.5938 18.3281C9.42877 18.3281 8.48438 19.2725 8.48438 20.4375C8.48438 21.6025 9.42877 22.5469 10.5938 22.5469Z" fill="#2E2C2A"/>
<path id="Vector_2" d="M17.6719 22.5469C18.8369 22.5469 19.7812 21.6025 19.7812 20.4375C19.7812 19.2725 18.8369 18.3281 17.6719 18.3281C16.5069 18.3281 15.5625 19.2725 15.5625 20.4375C15.5625 21.6025 16.5069 22.5469 17.6719 22.5469Z" fill="#2E2C2A"/>
<path id="Vector_3" d="M0.703121 2.85941H3.63528L7.02985 14.7428L6.7636 15.2753C6.06254 16.6759 7.08024 18.3281 8.6505 18.3281H20.4843C20.8729 18.3281 21.1874 18.0136 21.1874 17.625C21.1874 17.2363 20.8729 16.9218 20.4843 16.9218H8.6505C8.12836 16.9218 7.78711 16.372 8.02153 15.9042L8.21587 15.5156H20.4843C20.6371 15.5155 20.7858 15.4657 20.9078 15.3737C21.0298 15.2816 21.1186 15.1524 21.1606 15.0054L23.9731 5.16171C24.0029 5.05706 24.008 4.94694 23.9881 4.83997C23.9682 4.733 23.9238 4.63208 23.8584 4.54512C23.7927 4.45837 23.7078 4.388 23.6104 4.33951C23.513 4.29103 23.4056 4.26575 23.2968 4.26566H5.49948L4.84169 1.96331C4.79965 1.81636 4.71091 1.68708 4.58889 1.59504C4.46686 1.50299 4.31818 1.45318 4.16534 1.45312H0.703121C0.314483 1.45312 0 1.76761 0 2.15625C0 2.54488 0.314483 2.85941 0.703121 2.85941Z" fill="#2E2C2A"/>
</g>
</g>
</svg>


