<svg width="24" height="24" viewBox="0 0 24 24" fill="none" xmlns="http://www.w3.org/2000/svg">
<g id="Frame">
<g id="Group">
<path id="Vector" d="M19.5 0.75H4.5C4.30109 0.75 4.11032 0.829018 3.96967 0.96967C3.82902 1.11032 3.75 1.30109 3.75 1.5V22.5C3.74995 22.6413 3.78982 22.7798 3.86504 22.8994C3.94025 23.0191 4.04774 23.115 4.17511 23.1763C4.30249 23.2375 4.44457 23.2615 4.58498 23.2455C4.7254 23.2294 4.85843 23.1741 4.96875 23.0858L12 17.46L19.0312 23.085C19.1415 23.1733 19.2745 23.2286 19.4148 23.2447C19.5552 23.2607 19.6972 23.2368 19.8245 23.1757C19.9519 23.1145 20.0594 23.0187 20.1347 22.8992C20.2099 22.7796 20.2499 22.6413 20.25 22.5V1.5C20.25 1.30109 20.171 1.11032 20.0303 0.96967C19.8897 0.829018 19.6989 0.75 19.5 0.75Z" fill="#2E2C2A"/>
</g>
</g>
</svg>
